<?xml version="1.0" encoding="UTF-8"?>
<!DOCTYPE svg PUBLIC "-//W3C//DTD SVG 1.1//EN" "http://www.w3.org/Graphics/SVG/1.1/DTD/svg11.dtd">
<!-- Creator: CorelDRAW X7 -->
<svg xmlns="http://www.w3.org/2000/svg" xml:space="preserve" width="117.422mm" height="46.1186mm" version="1.1" style="shape-rendering:geometricPrecision; text-rendering:geometricPrecision; image-rendering:optimizeQuality; fill-rule:evenodd; clip-rule:evenodd"
viewBox="0 0 14960 5876"
 xmlns:xlink="http://www.w3.org/1999/xlink">
 <defs>
  <style type="text/css">
   <![CDATA[
    .fil4 {fill:#9DD8F3}
    .fil6 {fill:#F15631}
    .fil3 {fill:#00A8CE;fill-rule:nonzero}
    .fil0 {fill:#309CD8;fill-rule:nonzero}
    .fil2 {fill:#F93C16;fill-rule:nonzero}
    .fil1 {fill:#F9522B;fill-rule:nonzero}
    .fil5 {fill:#9DD8F3;fill-opacity:0.501961}
   ]]>
  </style>
 </defs>
 <g id="Layer_x0020_1">
  <metadata id="CorelCorpID_0Corel-Layer"/>
  <g id="_1563886624960">
   <polygon class="fil0" points="2453,2050 2453,2692 2278,2692 2278,2050 1957,2050 1957,1875 2775,1875 2775,2050 "/>
   <polygon class="fil0" points="2862,1875 3037,1875 3037,2196 3505,2196 3505,1875 3680,1875 3680,2692 3505,2692 3505,2371 3037,2371 3037,2692 2862,2692 "/>
   <polygon class="fil0" points="4585,1875 4585,2050 3943,2050 3943,2196 4469,2196 4469,2371 3943,2371 3943,2517 4585,2517 4585,2692 3768,2692 3768,1875 "/>
   <polygon class="fil1" points="5724,1875 5724,2050 5082,2050 5082,2196 5607,2196 5607,2371 5082,2371 5082,2692 4907,2692 4907,1875 "/>
   <polygon class="fil1" points="5812,1875 5987,1875 5987,2517 6630,2517 6630,2692 5812,2692 "/>
   <polygon class="fil1" points="6892,2692 6717,2692 6717,1875 6892,1875 "/>
   <path class="fil1" d="M7506 1875c194,0 292,68 292,204l0 29 -175 0 0 -29c0,-19 -39,-29 -117,-29l-234 0c-78,0 -117,10 -117,29l0 409c0,19 39,29 117,29l234 0c78,0 117,-10 117,-29l0 -117 -322 0 0 -175 497 0 0 292c0,136 -98,204 -292,204l-234 0c-195,0 -292,-68 -292,-204l0 -409c0,-136 97,-204 292,-204l234 0z"/>
   <polygon class="fil1" points="7885,1875 8061,1875 8061,2196 8528,2196 8528,1875 8703,1875 8703,2692 8528,2692 8528,2371 8061,2371 8061,2692 7885,2692 "/>
   <polygon class="fil1" points="9287,2050 9287,2692 9112,2692 9112,2050 8791,2050 8791,1875 9608,1875 9608,2050 "/>
   <path class="fil1" d="M10222 1875c194,0 292,68 292,204l0 29 -175 0 0 -29c0,-19 -39,-29 -117,-29l-234 0c-78,0 -117,10 -117,29l0 88c0,19 39,29 117,29l234 0c194,0 292,68 292,204l0 88c0,136 -98,204 -292,204l-234 0c-195,0 -292,-68 -292,-204l0 -29 175 0 0 29c0,19 39,29 117,29l234 0c78,0 117,-10 117,-29l0 -88c0,-19 -39,-29 -117,-29l-234 0c-195,0 -292,-68 -292,-204l0 -88c0,-136 97,-204 292,-204l234 0z"/>
   <polygon class="fil0" points="10601,1875 10777,1875 10777,2196 11244,2196 11244,1875 11419,1875 11419,2692 11244,2692 11244,2371 10777,2371 10777,2692 10601,2692 "/>
   <path class="fil0" d="M12032 2517c78,0 117,-10 117,-29l0 -613 175 0 0 613c0,136 -97,204 -292,204l-233 0c-195,0 -292,-68 -292,-204l0 -613 175 0 0 613c0,19 39,29 117,29l233 0z"/>
   <path class="fil0" d="M12587 2371l0 146 351 0c78,0 117,-10 117,-29l0 -88c0,-19 -39,-29 -117,-29l-351 0zm0 -321l0 146 351 0c78,0 117,-10 117,-29l0 -88c0,-19 -39,-29 -117,-29l-351 0zm-175 -175l526 0c194,0 292,68 292,204l0 88c0,47 -12,86 -35,117 23,30 35,69 35,116l0 88c0,136 -98,204 -292,204l-526 0 0 -817z"/>
   <path class="fil1" d="M14342 1130c-198,0 -359,-160 -359,-358 0,-199 161,-359 359,-359 198,0 359,160 359,359 0,198 -161,358 -359,358zm0 -976c-341,0 -618,276 -618,618 0,341 618,1352 618,1352 0,0 618,-1011 618,-1352 0,-342 -277,-618 -618,-618z"/>
   <path class="fil1" d="M14617 2663c0,152 -123,275 -275,275 -152,0 -275,-123 -275,-275 0,-152 123,-275 275,-275 152,0 275,123 275,275z"/>
   <path class="fil2" d="M13956 284c0,0 442,-289 793,144 49,79 274,317 -134,942 -169,326 -254,452 -273,748 194,-334 206,-352 366,-660 161,-308 456,-769 36,-1162 0,0 -344,-336 -788,-12z"/>
   <path class="fil3" d="M13481 4495c24,-22 507,-454 276,-627 -546,-405 -2148,414 -3975,952 -3017,888 -6509,1775 -8701,153 -1572,-1163 -1571,-3379 952,-4420 828,-341 1965,-678 3648,-507 457,46 946,165 1377,295 691,210 1235,448 1262,459 -49,-16 -1795,-592 -3570,-465l-3 0c-96,0 -2801,14 -3546,1598 -508,1079 286,1811 286,1811 0,0 -512,-1224 240,-2136 226,-274 562,-495 931,-670 -226,136 -436,300 -627,495 -748,764 -717,2117 180,2785 1970,1467 5816,385 7306,90 2179,-432 3714,-1096 4396,-678 7,4 14,8 21,12 461,306 -418,832 -453,853z"/>
   <path class="fil0" d="M13481 4495c24,-22 507,-454 276,-627 -546,-405 -2148,414 -3975,952 -3017,888 -6509,1775 -8701,153 -1572,-1163 -1571,-3379 952,-4420 828,-341 1965,-678 3648,-507 457,46 946,165 1377,295 691,210 1235,448 1262,459 -49,-16 -1795,-592 -3570,-465l-3 0c-97,0 -2801,14 -3546,1598 -508,1079 286,1811 286,1811 0,0 -512,-1224 240,-2136 226,-274 562,-495 931,-670 -226,136 -436,300 -627,495 -748,764 -717,2117 180,2785 1970,1467 5816,385 7306,90 2179,-432 3714,-1096 4396,-678 7,4 14,8 21,12 461,306 -418,832 -453,853l0 0z"/>
   <path class="fil4" d="M13480 4496c0,0 924,-542 454,-854 -671,-444 -3144,645 -5416,1233 -1458,377 -5787,1191 -7358,-538 -1160,-1277 -638,-2668 327,-3272 3327,-2082 6834,-264 6834,-264 0,0 -1431,-632 -2640,-755 -1683,-171 -2820,166 -3648,508 -2524,1040 -2525,3256 -952,4419 2192,1622 5684,735 8701,-153 1827,-538 3429,-1357 3974,-952 239,177 -276,628 -276,628l0 0z"/>
   <polygon class="fil3" points="8963,498 8963,498 8677,695 8957,934 8524,800 8239,997 10297,1633 10297,1633 "/>
   <polygon class="fil5" points="8901,597 8980,532 10237,1590 "/>
   <path class="fil6" d="M2849 3287l-84 -353 86 0 27 145c7,43 14,88 20,124l1 0c5,-38 14,-80 23,-124l30 -144 84 0 29 148c7,42 14,79 18,118l1 0c6,-39 13,-80 21,-122l29 -144 81 0 -91 353 -86 0 -30 -152c-8,-35 -12,-69 -17,-109l-1 0c-6,40 -12,74 -20,109l-35 153 -86 0 0 -2z"/>
   <polygon class="fil6" points="3520,3138 3389,3138 3389,3222 3535,3222 3535,3287 3310,3287 3310,2934 3527,2934 3527,2999 3389,2999 3389,3072 3520,3072 "/>
   <path class="fil6" d="M3800 2939c25,-4 60,-8 108,-8 49,0 84,10 108,29 23,18 37,47 37,81 0,34 -11,64 -32,84 -27,26 -68,37 -115,37 -10,0 -20,0 -27,-1l0 126 -79 0 0 -348zm79 160c7,2 15,2 27,2 42,0 69,-21 69,-57 0,-32 -22,-52 -63,-52 -16,0 -27,2 -33,3l0 104z"/>
   <polygon class="fil6" points="4158,2934 4237,2934 4237,3220 4378,3220 4378,3287 4158,3287 "/>
   <path class="fil6" d="M4560 3197l-26 90 -82 0 108 -353 104 0 110 353 -87 0 -26 -90 -101 0zm89 -60l-22 -75c-6,-21 -12,-47 -18,-68l-1 0c-4,20 -10,47 -16,68l-21 75 78 0z"/>
   <path class="fil6" d="M4875 3287l0 -353 92 0 74 129c21,38 41,81 57,121l2 0c-5,-46 -7,-94 -7,-147l0 -103 74 0 0 353 -84 0 -76 -136c-21,-38 -44,-84 -61,-124l-1 0c2,46 3,96 3,154l0 106 -73 0z"/>
   <path class="fil6" d="M5528 3287l0 -145 -111 -208 91 0 36 85c11,25 19,44 27,68l1 0c8,-22 16,-43 27,-68l36 -84 90 0 -116 205 0 148 -81 0 0 -1z"/>
   <path class="fil6" d="M6138 3107c0,116 -70,186 -173,186 -105,0 -166,-79 -166,-179 0,-106 68,-185 172,-185 108,-1 167,80 167,178zm-255 4c0,69 32,118 86,118 54,0 85,-51 85,-119 0,-64 -30,-118 -85,-118 -54,0 -86,51 -86,119z"/>
   <path class="fil6" d="M6323 2934l0 203c0,61 24,92 64,92 43,0 65,-29 65,-92l0 -203 80 0 0 198c0,109 -55,161 -147,161 -90,0 -141,-49 -141,-162l0 -196 79 0 0 -1z"/>
   <path class="fil6" d="M6653 2939c26,-4 64,-8 106,-8 52,0 89,8 114,28 21,17 33,41 33,74 0,45 -32,76 -63,87l0 2c24,9 38,33 47,66 11,39 21,86 29,99l-82 0c-5,-11 -14,-38 -24,-82 -10,-44 -25,-56 -58,-56l-23 0 0 138 -79 0 0 -348zm79 152l31 0c40,0 64,-21 64,-51 0,-32 -22,-48 -59,-48 -19,0 -30,1 -36,2l0 97z"/>
   <path class="fil6" d="M7175 2939c24,-4 59,-8 108,-8 49,0 85,10 108,29 23,18 38,47 38,81 0,34 -11,64 -33,84 -26,26 -67,37 -114,37 -11,0 -21,0 -27,-1l0 126 -79 0 0 -348 -1 0zm79 160c6,2 15,2 27,2 42,0 68,-21 68,-57 0,-32 -22,-52 -62,-52 -16,0 -27,2 -33,3l0 104z"/>
   <polygon class="fil6" points="7742,3138 7612,3138 7612,3222 7758,3222 7758,3287 7532,3287 7532,2934 7750,2934 7750,2999 7612,2999 7612,3072 7742,3072 "/>
   <path class="fil6" d="M7864 2939c26,-4 64,-8 106,-8 52,0 89,8 114,28 21,17 33,41 33,74 0,45 -32,76 -63,87l0 2c24,9 38,33 47,66 11,39 22,86 29,99l-82 0c-6,-11 -14,-38 -24,-82 -10,-44 -25,-56 -58,-56l-24 0 0 138 -79 0 0 -348 1 0zm80 152l31 0c40,0 63,-21 63,-51 0,-32 -22,-48 -58,-48 -19,0 -30,1 -36,2l0 97z"/>
   <polygon class="fil6" points="8228,2934 8444,2934 8444,2999 8308,2999 8308,3080 8435,3080 8435,3145 8308,3145 8308,3288 8228,3288 "/>
   <polygon class="fil6" points="8766,3138 8637,3138 8637,3222 8782,3222 8782,3287 8557,3287 8557,2934 8774,2934 8774,2999 8637,2999 8637,3072 8767,3072 8767,3138 "/>
   <path class="fil6" d="M9148 3277c-15,7 -48,16 -91,16 -122,0 -185,-77 -185,-178 0,-120 86,-187 193,-187 41,0 73,8 87,16l-17 63c-16,-7 -38,-13 -66,-13 -63,0 -113,38 -113,117 0,71 42,116 113,116 25,0 52,-5 67,-12l12 62z"/>
   <polygon class="fil6" points="9322,3001 9226,3001 9226,2935 9498,2935 9498,3001 9401,3001 9401,3288 9322,3288 "/>
   <path class="fil6" d="M10047 3271c-25,8 -72,19 -118,19 -65,0 -111,-16 -143,-47 -33,-31 -51,-77 -50,-129 0,-117 86,-184 202,-184 45,0 80,9 98,18l-17 64c-19,-8 -43,-15 -82,-15 -67,0 -117,38 -117,114 0,73 46,116 111,116 18,0 33,-3 39,-5l0 -74 -54 0 0 -63 132 0 0 186 -1 0z"/>
   <polygon class="fil6" points="10371,3138 10241,3138 10241,3222 10387,3222 10387,3287 10162,3287 10162,2934 10379,2934 10379,2999 10241,2999 10241,3072 10371,3072 "/>
   <polygon class="fil6" points="10562,3001 10467,3001 10467,2935 10738,2935 10738,3001 10642,3001 10642,3288 10562,3288 "/>
   <path class="fil6" d="M10915 3197l-25 90 -82 0 107 -353 104 0 110 353 -86 0 -27 -90 -101 0zm90 -60l-22 -75c-6,-21 -13,-47 -18,-68l-1 0c-5,20 -11,47 -16,68l-22 75 79 0z"/>
   <path class="fil6" d="M11286 3287l-84 -353 86 0 27 145c7,43 14,88 20,124l1 0c5,-38 14,-80 23,-124l30 -144 84 0 29 148c7,42 14,79 18,118l1 0c6,-39 13,-80 21,-122l28 -144 81 0 -91 353 -86 0 -30 -152c-7,-35 -12,-69 -17,-109l-1 0c-6,40 -11,74 -20,109l-34 153 -86 0 0 -2z"/>
   <path class="fil6" d="M11829 3197l-25 90 -83 0 108 -353 104 0 110 353 -86 0 -27 -90 -101 0zm89 -60l-22 -75c-5,-21 -12,-47 -17,-68l-1 0c-5,20 -11,47 -17,68l-21 75 78 0z"/>
   <path class="fil6" d="M12225 3287l0 -145 -111 -208 91 0 36 84c10,26 18,44 27,68l0 0c8,-22 17,-42 27,-68l36 -84 90 0 -116 206 0 147 -80 0z"/>
  </g>
 </g>
</svg>
