<?xml version="1.0" encoding="UTF-8"?>
<!DOCTYPE svg PUBLIC "-//W3C//DTD SVG 1.1//EN" "http://www.w3.org/Graphics/SVG/1.1/DTD/svg11.dtd">
<!-- Creator: CorelDRAW X7 -->
<svg xmlns="http://www.w3.org/2000/svg" xml:space="preserve" width="38.0999mm" height="14.9641mm" version="1.1" style="shape-rendering:geometricPrecision; text-rendering:geometricPrecision; image-rendering:optimizeQuality; fill-rule:evenodd; clip-rule:evenodd"
viewBox="0 0 4621 1815"
 xmlns:xlink="http://www.w3.org/1999/xlink">
 <defs>
  <style type="text/css">
   <![CDATA[
    .fil3 {fill:#00A8CE;fill-rule:nonzero}
    .fil0 {fill:#309CD8;fill-rule:nonzero}
    .fil2 {fill:#F93C16;fill-rule:nonzero}
    .fil1 {fill:#F9522B;fill-rule:nonzero}
    .fil5 {fill:url(#id0)}
    .fil4 {fill:url(#id1)}
   ]]>
  </style>
  <linearGradient id="id0" gradientUnits="userSpaceOnUse" x1="2749.64" y1="327.68" x2="3162.45" y2="327.68">
   <stop offset="0" style="stop-opacity:1; stop-color:#00E1EF"/>
   <stop offset="0.568627" style="stop-opacity:1; stop-color:#00B9D9"/>
   <stop offset="1" style="stop-opacity:1; stop-color:#0091C2"/>
  </linearGradient>
  <linearGradient id="id1" gradientUnits="userSpaceOnUse" x1="130.381" y1="907.533" x2="4215.23" y2="907.533">
   <stop offset="0" style="stop-opacity:1; stop-color:#004597"/>
   <stop offset="0.431373" style="stop-opacity:1; stop-color:#009CC8"/>
   <stop offset="1" style="stop-opacity:1; stop-color:#00F3F9"/>
  </linearGradient>
 </defs>
 <g id="Layer_x0020_1">
  <metadata id="CorelCorpID_0Corel-Layer"/>
  <polygon class="fil0" points="758,633 758,832 704,832 704,633 605,633 605,579 857,579 857,633 "/>
  <polygon class="fil0" points="884,579 938,579 938,678 1083,678 1083,579 1137,579 1137,832 1083,832 1083,733 938,733 938,832 884,832 "/>
  <polygon class="fil0" points="1417,579 1417,633 1218,633 1218,678 1380,678 1380,733 1218,733 1218,778 1417,778 1417,832 1164,832 1164,579 "/>
  <polygon class="fil1" points="1768,579 1768,633 1570,633 1570,678 1732,678 1732,733 1570,733 1570,832 1516,832 1516,579 "/>
  <polygon class="fil1" points="1795,579 1850,579 1850,778 2048,778 2048,832 1795,832 "/>
  <polygon class="fil1" points="2129,832 2075,832 2075,579 2129,579 "/>
  <path class="fil1" d="M2319 579c60,0 90,21 90,63l0 9 -54 0 0 -9c0,-6 -12,-9 -36,-9l-72 0c-25,0 -37,3 -37,9l0 127c0,6 12,9 37,9l72 0c24,0 36,-3 36,-9l0 -36 -99 0 0 -55 153 0 0 91c0,42 -30,63 -90,63l-72 0c-61,0 -91,-21 -91,-63l0 -127c0,-42 30,-63 91,-63l72 0z"/>
  <polygon class="fil1" points="2436,579 2490,579 2490,678 2634,678 2634,579 2689,579 2689,832 2634,832 2634,733 2490,733 2490,832 2436,832 "/>
  <polygon class="fil1" points="2869,633 2869,832 2815,832 2815,633 2716,633 2716,579 2968,579 2968,633 "/>
  <path class="fil1" d="M3158 579c60,0 90,21 90,63l0 9 -54 0 0 -9c0,-6 -12,-9 -36,-9l-72 0c-25,0 -37,3 -37,9l0 27c0,6 12,9 37,9l72 0c60,0 90,21 90,64l0 27c0,42 -30,63 -90,63l-72 0c-61,0 -91,-21 -91,-63l0 -9 54 0 0 9c0,6 12,9 37,9l72 0c24,0 36,-3 36,-9l0 -27c0,-7 -12,-9 -36,-9l-72 0c-61,0 -91,-22 -91,-64l0 -27c0,-42 30,-63 91,-63l72 0z"/>
  <polygon class="fil0" points="3275,579 3329,579 3329,678 3473,678 3473,579 3528,579 3528,832 3473,832 3473,733 3329,733 3329,832 3275,832 "/>
  <path class="fil0" d="M3717 778c24,0 36,-3 36,-9l0 -190 54 0 0 190c0,42 -30,63 -90,63l-72 0c-60,0 -90,-21 -90,-63l0 -190 54 0 0 190c0,6 12,9 36,9l72 0z"/>
  <path class="fil0" d="M3888 733l0 45 109 0c24,0 36,-3 36,-9l0 -27c0,-7 -12,-9 -36,-9l-109 0zm0 -100l0 45 109 0c24,0 36,-3 36,-9l0 -27c0,-6 -12,-9 -36,-9l-109 0zm-54 -54l163 0c60,0 90,21 90,63l0 27c0,15 -4,27 -11,36 7,10 11,22 11,37l0 27c0,42 -30,63 -90,63l-163 0 0 -253z"/>
  <path class="fil1" d="M4431 349c-62,0 -111,-49 -111,-111 0,-61 49,-111 111,-111 61,0 110,50 110,111 0,62 -49,111 -110,111zm0 -301c-106,0 -191,85 -191,190 0,106 191,418 191,418 0,0 190,-312 190,-418 0,-105 -85,-190 -190,-190z"/>
  <path class="fil1" d="M4515 823c0,47 -38,85 -84,85 -47,0 -85,-38 -85,-85 0,-47 38,-85 85,-85 46,0 84,38 84,85z"/>
  <path class="fil2" d="M4311 88c0,0 137,-89 245,44 15,25 85,98 -41,291 -52,101 -79,140 -84,231 59,-103 63,-108 113,-204 49,-95 140,-237 11,-358 0,0 -106,-104 -244,-4z"/>
  <path class="fil3" d="M4164 1389c8,-7 157,-141 86,-194 -169,-125 -664,128 -1228,294 -553,163 -1159,326 -1701,326 -371,0 -712,-75 -987,-279 -486,-359 -485,-1043 294,-1365 256,-105 607,-210 1127,-157 141,14 292,51 425,91 214,65 382,139 390,142 -15,-5 -554,-183 -1103,-144l-1 0c-29,0 -865,5 -1095,494 -157,334 88,560 88,560 0,0 -158,-379 74,-660 70,-85 174,-153 288,-207 -70,42 -135,92 -194,153 -231,236 -221,654 56,860 609,453 1797,119 2257,28 673,-134 1147,-339 1358,-210 2,1 4,3 6,4 143,94 -129,257 -140,264z"/>
  <path class="fil4" d="M4164 1389c0,0 286,-168 140,-264 -207,-137 -971,199 -1673,381 -450,116 -1787,368 -2273,-166 -358,-395 -197,-824 101,-1011 1028,-643 2112,-82 2112,-82 0,0 -442,-195 -816,-233 -520,-53 -871,52 -1127,157 -780,322 -780,1006 -294,1365 677,501 1756,227 2688,-47 564,-166 1059,-419 1228,-294 73,55 -86,194 -86,194l0 0z"/>
  <g id="_1932171412128">
   <polygon class="fil3" points="2769,154 2680,215 2767,288 2633,247 2545,308 2545,308 3181,505 2769,154 "/>
  </g>
  <polygon class="fil5" points="2750,184 2774,164 3162,491 "/>
 </g>
</svg>
